<?xml version="1.0" encoding="utf-8"?>
<!-- Generator: $$$/GeneralStr/196=Adobe Illustrator 27.6.0, SVG Export Plug-In . SVG Version: 6.00 Build 0)  -->
<svg version="1.1" id="圖層_1" xmlns="http://www.w3.org/2000/svg" xmlns:xlink="http://www.w3.org/1999/xlink" x="0px" y="0px"
	 viewBox="0 0 260 53" style="enable-background:new 0 0 260 53;" xml:space="preserve">
<style type="text/css">
	.st0{fill:#008540;}
</style>
<g>
	<polygon class="st0" points="67.581,46.655 69.204,46.655 69.204,43.785 71.594,43.785 71.594,42.497 69.204,42.497 69.204,41.057 
		71.714,41.057 71.714,39.751 67.581,39.751 	"/>
	<path class="st0" d="M76.75,39.718h-1.732l-2.863,6.937h1.687l0.603-1.544h2.806l0.593,1.544h1.784l-2.856-6.881L76.75,39.718z
		 M74.949,43.837l0.903-2.422l0.898,2.422H74.949z"/>
	<path class="st0" d="M85.352,43.814c-0.102-0.224-0.225-0.397-0.364-0.514c-0.037-0.031-0.075-0.059-0.113-0.083
		c0.095-0.027,0.181-0.058,0.258-0.094c0.155-0.072,0.303-0.175,0.441-0.306c0.138-0.131,0.259-0.303,0.358-0.511
		c0.101-0.209,0.151-0.454,0.151-0.73c0-0.242-0.044-0.473-0.129-0.686c-0.084-0.214-0.211-0.408-0.376-0.574
		c-0.163-0.165-0.345-0.295-0.54-0.384c-0.194-0.089-0.441-0.151-0.733-0.184c-0.194-0.019-0.576-0.029-1.166-0.029h-2.11v6.937
		h1.622V43.83c0.08-0.005,0.151-0.008,0.214-0.008c0.237,0,0.42,0.017,0.543,0.048c0.074,0.022,0.141,0.059,0.203,0.114
		c0.063,0.057,0.13,0.148,0.199,0.272c0.04,0.07,0.104,0.213,0.194,0.435l0.768,1.906l0.023,0.056h1.794l-1.074-2.479L85.352,43.814
		z M84.13,42.358c-0.193,0.168-0.51,0.253-0.941,0.253h-0.539v-1.654h0.738c0.346,0,0.608,0.074,0.778,0.218
		c0.168,0.143,0.25,0.321,0.25,0.542C84.416,41.981,84.323,42.19,84.13,42.358z"/>
	<polygon class="st0" points="93.329,43.761 95.848,43.761 95.848,42.478 93.329,42.478 93.329,41.057 96.083,41.057 96.083,39.751 
		91.707,39.751 91.707,46.655 96.108,46.655 96.108,45.348 93.329,45.348 	"/>
	<path class="st0" d="M101.958,39.718h-1.732l-2.863,6.937h1.687l0.603-1.544h2.806l0.593,1.544h1.784l-2.856-6.881L101.958,39.718z
		 M100.156,43.837l0.903-2.422l0.898,2.422H100.156z"/>
	<path class="st0" d="M109.507,42.698l-1.073-0.418c-0.297-0.114-0.497-0.231-0.595-0.347c-0.095-0.113-0.141-0.233-0.141-0.367
		c0-0.175,0.084-0.328,0.258-0.467c0.294-0.234,0.846-0.272,1.531-0.125c0.269,0.058,0.498,0.133,0.681,0.221l0.115,0.055
		l0.152-1.328l-0.073-0.021c-0.581-0.17-1.15-0.256-1.692-0.256c-0.846,0-1.5,0.189-1.944,0.563
		c-0.449,0.377-0.676,0.869-0.676,1.461c0,0.307,0.061,0.583,0.182,0.82c0.12,0.237,0.298,0.445,0.526,0.619
		c0.172,0.134,0.418,0.268,0.73,0.397l0.983,0.404c0.249,0.102,0.431,0.215,0.539,0.335c0.103,0.115,0.154,0.247,0.154,0.403
		c0,0.207-0.096,0.385-0.293,0.545c-0.201,0.162-0.502,0.244-0.894,0.244c-0.258,0-0.529-0.038-0.805-0.113
		c-0.277-0.075-0.524-0.174-0.737-0.293l-0.12-0.067l-0.151,1.451l0.072,0.021c0.616,0.182,1.221,0.275,1.796,0.275
		c0.363,0,0.715-0.037,1.047-0.111c0.335-0.075,0.632-0.199,0.884-0.367c0.253-0.171,0.463-0.4,0.624-0.681
		c0.162-0.284,0.244-0.619,0.244-0.997c0-0.42-0.119-0.799-0.353-1.127C110.245,43.101,109.917,42.856,109.507,42.698z"/>
	<polygon class="st0" points="112.031,41.057 114.042,41.057 114.042,46.655 115.664,46.655 115.664,41.057 117.725,41.057 
		117.725,39.727 112.031,39.727 	"/>
	<polygon class="st0" points="120.816,43.761 123.335,43.761 123.335,42.478 120.816,42.478 120.816,41.057 123.57,41.057 
		123.57,39.751 119.194,39.751 119.194,46.655 123.595,46.655 123.595,45.348 120.816,45.348 	"/>
	<path class="st0" d="M129.902,43.814c-0.102-0.224-0.225-0.397-0.364-0.514c-0.037-0.031-0.075-0.059-0.113-0.083
		c0.095-0.027,0.181-0.058,0.258-0.094c0.155-0.072,0.303-0.175,0.441-0.306c0.138-0.131,0.259-0.303,0.358-0.511
		c0.101-0.209,0.151-0.454,0.151-0.73c0-0.242-0.044-0.473-0.129-0.686c-0.084-0.214-0.211-0.408-0.376-0.574
		c-0.163-0.165-0.345-0.295-0.54-0.384c-0.194-0.089-0.441-0.151-0.733-0.184c-0.194-0.019-0.576-0.029-1.166-0.029h-2.11v6.937
		h1.622V43.83c0.08-0.005,0.151-0.008,0.214-0.008c0.237,0,0.42,0.017,0.543,0.048c0.074,0.022,0.141,0.059,0.203,0.114
		c0.063,0.057,0.13,0.148,0.199,0.272c0.04,0.07,0.104,0.213,0.194,0.435l0.768,1.906l0.023,0.056h1.794l-1.074-2.479
		L129.902,43.814z M128.68,42.358c-0.193,0.168-0.51,0.253-0.941,0.253h-0.539v-1.654h0.738c0.346,0,0.608,0.074,0.778,0.218
		c0.168,0.143,0.25,0.321,0.25,0.542C128.966,41.981,128.872,42.19,128.68,42.358z"/>
	<polygon class="st0" points="137.111,44.631 134.477,39.765 134.451,39.718 132.581,39.718 132.581,46.655 134.039,46.655 
		134.039,41.741 136.673,46.607 136.699,46.655 138.578,46.655 138.578,39.718 137.111,39.718 	"/>
	<polygon class="st0" points="148.454,44.661 146.837,39.779 146.816,39.718 144.366,39.718 144.366,46.655 145.868,46.655 
		145.868,41.465 147.68,46.655 149.145,46.655 151.002,41.454 151.002,46.655 152.539,46.655 152.539,39.718 150.139,39.718 	"/>
	<polygon class="st0" points="156.439,43.761 158.958,43.761 158.958,42.478 156.439,42.478 156.439,41.057 159.193,41.057 
		159.193,39.751 154.817,39.751 154.817,46.655 159.218,46.655 159.218,45.348 156.439,45.348 	"/>
	<polygon class="st0" points="165.314,44.661 163.697,39.779 163.675,39.718 161.226,39.718 161.226,46.655 162.728,46.655 
		162.728,41.465 164.54,46.655 166.004,46.655 167.861,41.454 167.861,46.655 169.399,46.655 169.399,39.718 166.999,39.718 	"/>
	<path class="st0" d="M176.557,39.974c-0.522-0.268-1.137-0.404-1.827-0.404c-0.594,0-1.138,0.1-1.616,0.297
		c-0.377,0.156-0.722,0.391-1.026,0.7c-0.302,0.309-0.536,0.693-0.696,1.14c-0.158,0.445-0.239,0.931-0.239,1.446
		c0,0.734,0.144,1.384,0.427,1.932c0.285,0.553,0.71,0.981,1.266,1.272c0.55,0.289,1.17,0.436,1.84,0.436
		c0.684,0,1.309-0.147,1.858-0.436c0.553-0.29,0.981-0.725,1.273-1.291c0.289-0.561,0.436-1.2,0.436-1.899s-0.151-1.343-0.448-1.916
		C177.504,40.675,177.084,40.245,176.557,39.974z M175.925,45.008c-0.321,0.366-0.718,0.544-1.214,0.544
		c-0.334,0-0.645-0.088-0.923-0.262c-0.278-0.174-0.503-0.44-0.667-0.793c-0.166-0.358-0.251-0.794-0.251-1.297
		c0-0.782,0.202-1.408,0.601-1.86c0.321-0.366,0.724-0.545,1.23-0.545c0.314,0,0.61,0.08,0.879,0.237
		c0.268,0.157,0.496,0.425,0.679,0.798c0.184,0.378,0.277,0.832,0.277,1.351C176.536,43.94,176.33,44.555,175.925,45.008z"/>
	<path class="st0" d="M184.264,43.814c-0.102-0.224-0.225-0.397-0.364-0.514c-0.037-0.031-0.075-0.059-0.113-0.083
		c0.095-0.027,0.181-0.058,0.258-0.094c0.155-0.072,0.303-0.175,0.441-0.306c0.138-0.131,0.259-0.303,0.358-0.511
		c0.101-0.209,0.151-0.454,0.151-0.73c0-0.242-0.044-0.473-0.129-0.686c-0.084-0.214-0.211-0.408-0.376-0.574
		c-0.163-0.165-0.345-0.295-0.54-0.384c-0.194-0.089-0.441-0.151-0.733-0.184c-0.194-0.019-0.576-0.029-1.166-0.029h-2.11v6.937
		h1.622V43.83c0.08-0.005,0.151-0.008,0.214-0.008c0.237,0,0.42,0.017,0.543,0.048c0.074,0.022,0.141,0.059,0.203,0.114
		c0.063,0.057,0.13,0.148,0.199,0.272c0.04,0.07,0.104,0.213,0.194,0.435l0.768,1.906l0.023,0.056h1.794l-1.074-2.479
		L184.264,43.814z M183.043,42.358c-0.193,0.168-0.51,0.253-0.941,0.253h-0.539v-1.654h0.738c0.346,0,0.607,0.074,0.778,0.218
		c0.168,0.143,0.25,0.321,0.25,0.542C183.329,41.981,183.235,42.19,183.043,42.358z"/>
	<rect x="186.875" y="39.718" class="st0" width="1.623" height="6.937"/>
	<path class="st0" d="M194.427,39.718h-1.732l-2.863,6.937h1.687l0.603-1.544h2.806l0.593,1.544h1.784l-2.856-6.881L194.427,39.718z
		 M192.625,43.837l0.903-2.422l0.898,2.422H192.625z"/>
	<polygon class="st0" points="200.292,39.718 198.67,39.718 198.67,46.655 203.036,46.655 203.036,45.315 200.292,45.315 	"/>
	<polygon class="st0" points="212.541,42.421 209.882,42.421 209.882,39.718 208.261,39.718 208.261,46.655 209.882,46.655 
		209.882,43.747 212.541,43.747 212.541,46.655 214.163,46.655 214.163,39.718 212.541,39.718 	"/>
	<path class="st0" d="M221.271,39.974c-0.522-0.268-1.137-0.404-1.827-0.404c-0.594,0-1.138,0.1-1.616,0.297
		c-0.377,0.156-0.722,0.391-1.026,0.7c-0.302,0.309-0.536,0.693-0.696,1.14c-0.158,0.445-0.239,0.931-0.239,1.446
		c0,0.734,0.144,1.384,0.427,1.932c0.285,0.553,0.71,0.981,1.266,1.272c0.55,0.289,1.17,0.436,1.84,0.436
		c0.684,0,1.309-0.147,1.858-0.436c0.553-0.29,0.981-0.725,1.273-1.291c0.289-0.561,0.436-1.2,0.436-1.899s-0.151-1.343-0.448-1.916
		C222.218,40.675,221.798,40.245,221.271,39.974z M220.639,45.008c-0.321,0.366-0.718,0.544-1.214,0.544
		c-0.334,0-0.645-0.088-0.923-0.262c-0.278-0.174-0.503-0.44-0.667-0.793c-0.166-0.358-0.251-0.794-0.251-1.297
		c0-0.782,0.202-1.408,0.601-1.86c0.321-0.366,0.724-0.545,1.23-0.545c0.314,0,0.61,0.08,0.879,0.237
		c0.268,0.157,0.496,0.425,0.679,0.798c0.184,0.378,0.277,0.832,0.277,1.351C221.25,43.94,221.044,44.555,220.639,45.008z"/>
	<path class="st0" d="M228.121,42.698l-1.073-0.418c-0.297-0.114-0.497-0.231-0.595-0.347c-0.095-0.113-0.141-0.233-0.141-0.367
		c0-0.175,0.084-0.328,0.258-0.467c0.294-0.234,0.847-0.272,1.531-0.125c0.269,0.058,0.498,0.133,0.681,0.221l0.115,0.055
		l0.152-1.328l-0.073-0.021c-0.581-0.17-1.15-0.256-1.692-0.256c-0.846,0-1.5,0.189-1.944,0.563
		c-0.449,0.377-0.676,0.869-0.676,1.461c0,0.307,0.061,0.583,0.182,0.82c0.12,0.237,0.298,0.445,0.526,0.619
		c0.172,0.134,0.418,0.268,0.73,0.397l0.983,0.404c0.249,0.102,0.431,0.215,0.539,0.335c0.103,0.115,0.154,0.247,0.154,0.403
		c0,0.207-0.096,0.385-0.293,0.545c-0.201,0.162-0.502,0.244-0.894,0.244c-0.258,0-0.529-0.038-0.805-0.113
		c-0.277-0.075-0.524-0.174-0.737-0.293l-0.12-0.067l-0.151,1.451l0.072,0.021c0.616,0.182,1.221,0.275,1.796,0.275
		c0.363,0,0.715-0.037,1.047-0.111c0.335-0.075,0.632-0.199,0.884-0.367c0.253-0.171,0.463-0.4,0.624-0.681
		c0.162-0.284,0.244-0.619,0.244-0.997c0-0.42-0.119-0.799-0.353-1.127C228.859,43.101,228.531,42.856,228.121,42.698z"/>
	<path class="st0" d="M235.613,40.431c-0.185-0.189-0.4-0.34-0.638-0.449c-0.237-0.108-0.534-0.185-0.885-0.231
		c-0.196-0.023-0.605-0.034-1.213-0.034h-1.652v6.937h1.623V44.09l0.511,0.008c0.298,0.007,0.546-0.003,0.734-0.03
		c0.308-0.045,0.58-0.117,0.81-0.213c0.233-0.098,0.448-0.244,0.639-0.433c0.192-0.19,0.348-0.417,0.465-0.675
		c0.118-0.26,0.177-0.553,0.177-0.869c0-0.283-0.049-0.549-0.146-0.794C235.941,40.84,235.797,40.62,235.613,40.431z
		 M234.413,42.331c-0.068,0.119-0.156,0.216-0.262,0.289c-0.111,0.075-0.22,0.132-0.322,0.166c-0.173,0.051-0.434,0.077-0.773,0.077
		c-0.039,0-0.109-0.001-0.209-0.003v-1.935c0.086-0.007,0.163-0.011,0.229-0.011c0.512,0,0.885,0.092,1.109,0.272
		c0.22,0.178,0.328,0.404,0.328,0.688C234.513,42.061,234.479,42.214,234.413,42.331z"/>
	<rect x="237.659" y="39.718" class="st0" width="1.623" height="6.937"/>
	<polygon class="st0" points="246.573,39.727 240.88,39.727 240.88,41.057 242.89,41.057 242.89,46.655 244.513,46.655 
		244.513,41.057 246.573,41.057 	"/>
	<path class="st0" d="M251.071,39.718h-1.732l-2.863,6.937h1.687l0.603-1.544h2.806l0.593,1.544h1.784l-2.856-6.881L251.071,39.718z
		 M249.27,43.837l0.903-2.422l0.898,2.422H249.27z"/>
	<polygon class="st0" points="256.936,39.718 255.314,39.718 255.314,46.655 259.68,46.655 259.68,45.315 256.936,45.315 	"/>
	<path class="st0" d="M225.101,15.581c-2.297-0.189-4.378-1.046-6.454-1.946c-0.679-0.295-0.878-0.769-0.838-1.521
		c0.993-0.17,1.97-0.369,2.956-0.496c0.672-0.087,1.857-1.082,1.663-1.65c-0.188-0.551-0.677-1.096-1.18-1.417
		c-0.435-0.278-0.584-0.461-0.375-0.906c0.135-0.287,0.293-0.564,0.405-0.859c0.434-1.142,0.155-1.743-1.036-2.042
		c-0.349-0.088-0.761,0.09-1.146,0.127c-0.565,0.055-1.29,0.342-1.546-0.379c-0.212-0.598-0.602-0.608-0.978-0.493
		c-0.311,0.095-0.628,0.399-0.79,0.694c-0.236,0.429-0.292,0.953-0.502,1.401c-0.669,1.425-2.946,1.773-3.9,0.534
		c0.208-0.18,0.431-0.353,0.629-0.551c0.299-0.297,0.726-0.565,0.842-0.926c0.381-1.184-0.398-2.224-1.656-2.11
		c-1.197,0.108-2.374,0.452-3.557,0.705c-0.139,0.03-0.263,0.21-0.389,0.206c-0.427-0.014-0.819,0.102-0.757,0.558
		c0.03,0.221,0.434,0.441,0.712,0.568c0.713,0.328,1.131,0.999,0.953,1.758c-0.168,0.718-0.79,0.64-1.337,0.655
		c-0.187,0.005-0.38-0.023-0.561,0.01c-0.839,0.152-1.106-0.333-1.124-1.029c-0.029-1.097-0.865-1.58-1.655-2.4
		c-0.178,0.54-0.388,0.884-0.391,1.23c-0.031,3.259-0.147,6.507-0.788,9.718c-0.18,0.904,0.339,1.48,1.032,1.288
		c0.272-0.076,0.571-0.058,0.857-0.083c-0.023,0.293-0.021,0.589-0.073,0.877c-0.084,0.47-0.248,1.007,0.357,1.196
		c0.494,0.154,1.091,0.283,1.562,0.146c1.11-0.323,1.857,0.247,2.637,0.816c0.423,0.309,0.828,0.642,1.241,0.964
		c-0.046,0.127-0.093,0.254-0.14,0.381c-0.925,0-1.85,0.01-2.774-0.005c-0.397-0.006-0.744,0.012-0.879,0.476
		c-0.258,0.893-0.705,1.773-0.758,2.677c-0.156,2.642,0.598,5.121,1.741,7.48c0.123,0.254,0.556,0.494,0.855,0.506
		c1.336,0.055,2.676,0.016,4.014,0.034c0.241,0.003,0.48,0.111,0.72,0.171c1.821,0,3.641,0,5.462,0
		c-0.211-2.794,0.578-5.371,1.734-7.866c0.249-0.539,0.569-1.055,0.744-1.617c0.353-1.137-0.207-1.856-1.371-1.856
		c-1.097,0-2.195,0.011-3.292-0.009c-0.219-0.004-0.516-0.058-0.64-0.204c-0.651-0.772-0.23-2.059,0.746-2.401
		c0.521-0.182,0.991-0.421,0.911-1.146c-0.342-0.11-0.691-0.221-1.039-0.333c-0.34-0.11-0.679-0.221-1.025-0.334
		c0.717-1.769,1.872-2.078,3.307-1.116c1.425,0.955,2.645,2.244,4.612,2.294C224.309,17.392,225.35,16.772,225.101,15.581z
		 M206.239,16.56c-0.467-0.041-1.195,0.097-1.142-0.821c0.041-0.709,0.25-0.928,1.447-0.943c0.113,0.115,0.586,0.374,0.603,0.662
		C207.181,15.99,206.957,16.623,206.239,16.56z M207.907,11.642c-0.292,0.018-0.586,0.003-0.879,0.003
		c-0.024,0.059-0.049,0.117-0.073,0.176c-0.501-0.208-1.168-0.282-1.467-0.652c-0.638-0.788,0.052-1.681,1.328-1.797
		c0.37-0.034,0.747-0.022,1.119-0.004c0.843,0.042,1.252,0.385,1.241,1.013C209.162,11.071,208.641,11.597,207.907,11.642z
		 M209.622,16.727c-0.648,0.075-0.835-0.418-0.805-0.995c-0.083-0.68,0.352-0.881,0.906-0.925c0.498-0.039,0.947,0.562,0.797,1.274
		C210.461,16.358,209.955,16.688,209.622,16.727z M210.834,29.695c-0.22,0.329-1.221,0.239-1.593-0.069
		c-0.931-0.771-1.155-1.826-1.294-3.357c0.181-0.559,0.442-1.483,0.785-2.376c0.266-0.693,0.918-0.922,1.437-0.468
		c0.321,0.281,0.531,1.091,0.353,1.448c-0.32,0.642-0.332,1.144-0.082,1.772c0.107,0.268-0.036,0.626-0.018,0.941
		c0.018,0.313-0.001,0.699,0.17,0.916C210.898,28.888,211.131,29.252,210.834,29.695z M211.954,12.612
		c0.871,0.442,2.077,0.178,2.65,1.214c0.116,0.21,0.143,0.639,0.01,0.784c-0.333,0.363-0.776,0.63-1.189,0.915
		c-0.095,0.065-0.306,0.116-0.358,0.066c-0.633-0.609-1.334-1.177-1.837-1.883C210.854,13.182,211.276,12.647,211.954,12.612z
		 M213.342,19.83c-0.393,0.338-0.658,0.565-0.923,0.793c-0.229-0.294-0.677-0.626-0.632-0.871c0.054-0.301,0.518-0.529,0.805-0.788
		C212.801,19.205,213.009,19.446,213.342,19.83z M211.747,22.796c0.384-0.055,0.768-0.141,1.152-0.14
		c0.089,0,0.292,0.354,0.245,0.447c-0.155,0.308-0.401,0.572-0.611,0.852c-0.292-0.26-0.584-0.521-0.877-0.781
		C211.687,23.048,211.717,22.922,211.747,22.796z M215.047,21.875c1.025-0.345,1.559,0.048,1.692,1.195
		c-0.311,0.74-0.566,1.511-0.95,2.211c-0.291,0.531-0.421,1.001-0.181,1.573c0.316,0.751,0.203,1.366-0.567,1.829
		c-0.733,0.442-1.351,1.06-2.306,1.074c-0.543,0.008-0.774-0.35-0.793-0.686c-0.015-0.253,0.314-0.664,0.581-0.765
		c0.43-0.163,0.897-0.111,0.685-0.824c-0.042-0.141,0.365-0.475,0.62-0.63c0.625-0.377,0.52-0.772,0.099-1.208
		c-0.071-0.074-0.201-0.103-0.248-0.185C213.192,24.611,214.122,22.186,215.047,21.875z M215.421,10.203
		c-0.159,0.933-0.409,1.105-1.358,0.881c-0.864-0.204-1.717-0.457-2.565-0.722c-0.229-0.071-0.419-0.263-0.801-0.514
		c1.28-0.505,2.339-0.932,3.404-1.341c0.833-0.32,1.195-0.12,1.324,0.741C215.472,9.56,215.474,9.893,215.421,10.203z"/>
	<path class="st0" d="M258.923,25.916c-0.142-0.224-0.453-0.341-0.687-0.508c-0.131,0.233-0.37,0.464-0.375,0.7
		c-0.017,0.851-0.576,1.255-1.23,1.541c-1.14,0.499-2.286,0.6-3.569,0.374c-1.884-0.331-2.705-0.858-3.094-2.677
		c-0.154-0.721-0.322-1.454-0.346-2.185c-0.036-1.124,0.35-1.563,1.353-1.938c0.603-0.226,1.243-0.442,1.749-0.818
		c1.104-0.822,1.715-1.587,1.24-2.669c-1.481,0.131-2.971,0.263-4.461,0.395c-0.052-0.1-0.104-0.2-0.156-0.3
		c0.314-0.351,0.572-0.791,0.956-1.031c0.627-0.393,0.928-0.834,0.65-1.638c-0.94,0-1.9,0.037-2.856-0.012
		c-0.738-0.038-1.368,0.187-1.896,0.642c-0.655,0.564-1.377,0.551-2.242,0.437c0-0.713-0.027-1.399,0.02-2.081
		c0.011-0.167,0.235-0.392,0.413-0.463c0.922-0.365,1.869-0.67,2.793-1.033c0.982-0.386,1.938-0.837,2.922-1.217
		c1.109-0.428,2.241-0.575,3.385-0.097c0.357,0.149,0.583,0.301,0.39,0.772c-0.265,0.645-0.438,1.328-0.681,2.09
		c0.405-0.047,0.753-0.047,1.077-0.134c1.003-0.269,1.986-0.616,2.997-0.849c1.228-0.283,1.631-0.847,1.152-1.775
		c-1.028-1.996-3.407-2.777-5.517-1.921c-0.572,0.232-1.289,0.167-1.934,0.133c-0.193-0.01-0.478-0.356-0.526-0.588
		c-0.088-0.424-0.055-0.88-0.028-1.319c0.046-0.734-0.168-1.356-0.809-1.736c-0.546-0.324-2.005-0.054-2.5,0.391
		c-1.03,0.928-0.958,1.516,0.265,2.155c0.464,0.242,0.663,0.912,0.351,1.176c-0.552,0.465-2.202,0.389-2.768-0.101
		c-0.411-0.356-0.859-0.406-1.179,0.108c-0.321,0.515-0.561,1.08-0.874,1.6c-0.218,0.362-0.499,0.686-0.775,1.06
		c-0.299-0.265-0.495-0.407-0.652-0.583c-0.859-0.961-0.945-2.324-0.168-3.013c0.655-0.58,1.343-1.123,2.025-1.671
		c0.609-0.489,0.79-1.243,0.451-1.954c-0.332-0.697-1.049-1.146-1.74-0.855c-0.841,0.355-1.756,0.72-2.177,1.657
		c-0.325,0.723-0.938,1.074-1.663,1.174c-1.129,0.156-2.27,0.288-3.408,0.309c-0.739,0.014-0.868,0.483-0.869,0.962
		c-0.002,0.488,0.146,1.015,0.88,0.943c0.424-0.042,0.856-0.006,1.284-0.006c1.783,0.002,1.722,0.013,2.027,1.701
		c0.14,0.772,0.075,1.765,1.11,2.106c1.043,0.344,1.858,1.272,1.875,2.335c0.005,0.312-0.291,0.824-0.551,0.902
		c-0.471,0.14-0.987,0.708-1.546,0.017c-0.739-0.913-1.487-1.773-1.336-3.08c0.024-0.21-0.344-0.505-0.588-0.682
		c-0.074-0.054-0.419,0.108-0.503,0.251c-0.232,0.393-0.475,0.812-0.56,1.25c-0.135,0.698-0.095,1.429-0.217,2.13
		c-0.629,3.633-1.756,7.181-1.86,10.906c-0.038,1.383-0.011,2.717,1.541,3.337c0.333,0.133,0.831,0.255,1.079,0.102
		c0.317-0.196,0.563-0.652,0.649-1.038c0.113-0.509,0.005-1.061,0.053-1.59c0.135-1.496,0.351-2.986,0.438-4.484
		c0.074-1.275,0.005-2.558,0.021-3.838c0.004-0.312,0.043-0.641,0.153-0.929c0.068-0.178,0.297-0.41,0.461-0.416
		c0.443-0.016,0.895,0.046,1.333,0.13c1.003,0.194,2.016,0.539,2.793-0.512c0.132-0.179,0.348-0.297,0.663-0.557
		c0.193,1.47,1.222,1.966,2.454,2.328c-0.547,0.408-1.056,0.647-1.557,0.9c-0.808,0.407-1.601,0.846-2.422,1.227
		c-0.596,0.276-0.548,0.79-0.382,1.196c0.088,0.215,0.591,0.388,0.89,0.366c0.76-0.055,1.511-0.229,2.265-0.36
		c0.809-0.14,1.326,0.418,1.002,1.153c-0.149,0.337-0.458,0.632-0.754,0.872c-1.64,1.33-3.307,2.626-4.937,3.967
		c-0.17,0.139-0.242,0.507-0.215,0.753c0.127,1.154,0.928,1.276,1.976,0.742c1.906-0.97,3.334-2.497,4.626-4.163
		c0.194-0.25,0.467-0.439,0.767-0.716c0.139,0.259,0.189,0.325,0.21,0.399c0.021,0.075,0.029,0.161,0.016,0.238
		c-0.326,1.857,0.852,2.864,2.133,3.858c1.076,0.835,2.348,0.676,3.545,0.765c1.966,0.146,3.863-0.211,5.693-1.029
		c0.494-0.221,0.901-0.408,0.939-0.897C259.464,27.952,259.524,26.868,258.923,25.916z"/>
	<path class="st0" d="M112.037,31.072c0.566-1.426,0.296-2.865,0.052-4.308c-0.121-0.715-0.164-1.442-0.271-2.424
		c1.377,0.722,2.539,1.319,3.69,1.937c1.139,0.611,2.261,1.254,3.402,1.86c0.533,0.283,1.822,0.022,2.263-0.32
		c0.992-0.772,0.448-1.78,0.231-2.553c-0.139-0.496-1.015-0.884-1.638-1.123c-0.8-0.307-1.689-0.373-2.516-0.623
		c-0.895-0.271-1.747-0.691-2.647-0.94c-0.605-0.168-1.036-0.426-1.101-1.058c-0.078-0.762,0.602-0.852,1.071-0.924
		c0.813-0.123,1.092-0.653,1.315-1.302c0.077-0.222,0.171-0.439,0.257-0.658c0.404-1.021,0.911-2.016,1.187-3.071
		c0.351-1.342,0.543-2.728,0.735-4.105c0.034-0.245-0.227-0.574-0.426-0.799c-0.532-0.6-1.125-0.392-1.797-0.174
		c-1.118,0.362-2.278,0.6-3.431,0.838c-0.194,0.04-0.621-0.167-0.632-0.287c-0.029-0.339,0.009-0.759,0.199-1.018
		c0.156-0.212,0.561-0.261,0.865-0.345c0.956-0.262,1.998-0.256,2.761-1.065c0.507-0.538,0.64-1.421,0.205-2.116
		c-0.365-0.583-1.017-0.406-1.335-0.2c-0.732,0.475-0.956-0.003-1.087-0.472c-0.202-0.73-0.291-1.495-0.378-2.251
		c-0.073-0.634-1.375-1.399-1.846-0.985c-0.507,0.446-1.119,0.881-1.022,1.752c0.057,0.513-0.126,1.048-0.126,1.574
		c0,0.691-0.32,0.913-0.983,0.94c-1.699,0.069-3.399,0.161-5.089,0.334c-0.31,0.032-0.786,0.467-0.822,0.76
		c-0.122,0.996,1.203,2.061,2.164,1.928c0.627-0.087,1.26-0.189,1.887-0.172c0.253,0.007,0.67,0.276,0.713,0.486
		c0.106,0.509,0.427,1.306-0.336,1.459c-1.064,0.214-2.184,0.144-3.28,0.207c-0.789,0.045-1.689-0.213-2.273,0.525
		c-0.772,0.975-0.058,3.054,1.155,3.525c1.082,0.42,1.122,0.608,0.975,1.787c-0.154,1.235-0.176,2.487-0.231,3.732
		c-0.023,0.508,0.216,0.739,0.779,0.747c0.519,0.008,1.036,0.187,1.554,0.291c0.047,0.122,0.094,0.244,0.142,0.365
		c-0.309,0.229-0.68,0.408-0.919,0.695c-1.891,2.274-3.818,4.505-6.508,5.901c-0.53,0.275-0.455,0.753-0.141,0.946
		c0.559,0.344,1.274,0.756,1.857,0.673c1.162-0.167,2.282-0.562,3.062-1.648c0.294-0.409,0.763-1.119,1.538-0.808
		c1.165,0.466,2.018,1.289,2.465,2.466c0.531,1.398,2.671,1.906,3.813,0.855C111.771,31.698,111.918,31.371,112.037,31.072z
		 M108.552,27.706c-0.018,0.597-0.414,0.713-0.8,0.535c-0.718-0.33-1.379-0.782-2.252-1.294c1.076-1.012,1.957-1.84,2.839-2.668
		c0.092,0.037,0.185,0.075,0.278,0.112c0.032,0.341,0.102,0.684,0.088,1.023C108.672,26.179,108.575,26.942,108.552,27.706z
		 M108.173,20.016c-0.213,0.097-0.678,0.068-0.759-0.066c-0.14-0.233-0.165-0.63-0.058-0.883c0.082-0.196,0.439-0.385,0.674-0.385
		c0.37-0.001,0.74,0.16,1.11,0.252c0.048,0.113,0.096,0.226,0.144,0.339C108.917,19.528,108.573,19.835,108.173,20.016z
		 M108.773,16.225c-0.422,0.118-0.911,0.097-1.346,0.011c-0.112-0.022-0.276-0.634-0.168-0.756c0.306-0.345,0.741-0.577,1.293-0.974
		c0.393,0.444,0.741,0.715,0.884,1.068C109.484,15.694,109.05,16.147,108.773,16.225z M113.791,12.704
		c0.767-0.023,1.322,0.359,1.355,0.932c0.061,1.071-0.936,1.957-2.251,2.003c-0.904,0.032-0.817-0.631-0.854-1.076
		C112.029,13.504,112.811,12.732,113.791,12.704z M111.688,17.584c0.646-0.135,1.335-0.077,2.007-0.058
		c0.062,0.002,0.153,0.25,0.17,0.391c0.122,0.988-0.701,2.186-1.649,2.335c-0.18,0.028-0.512-0.175-0.585-0.35
		c-0.17-0.404-0.225-0.856-0.364-1.452C111.377,18.205,111.476,17.629,111.688,17.584z"/>
	<path class="st0" d="M87.185,26.049c-0.731,0.054-1.455,0.195-2.181,0.305c-0.519,0.079-1.046,0.132-1.551,0.265
		c-0.796,0.211-1.274-0.121-1.279-0.954c-0.004-0.72,0-1.439,0.001-2.159c0.002-1.386,0.003-1.381,1.405-1.674
		c0.188-0.039,0.411-0.106,0.532-0.237c0.64-0.693,0.943-1.432,0.67-2.444c-0.328-1.214-0.018-1.739,0.89-2.095
		c1.222-0.48,1.655-1.088,1.644-2.307c-0.008-0.9-0.332-1.235-1.269-1.174c-0.788,0.051-1.568,0.262-2.356,0.289
		c-1.739,0.059-1.743,0.03-1.515-1.653c0.096-0.71,0.268-1.364,1.167-1.435c0.525-0.041,1.059-0.052,1.572-0.157
		c0.557-0.114,1.223-0.177,1.61-0.521c0.595-0.528,0.374-2.35-0.261-2.856c-0.278-0.222-0.695-0.4-1.039-0.385
		c-0.81,0.036-1.611,0.233-2.421,0.306c-1.749,0.157-3.501,0.278-5.252,0.413c-0.002,0.023-0.005,0.046-0.007,0.069
		c-1.683,0-3.376,0.105-5.048-0.033c-1.327-0.11-2.051,0.548-2.695,1.491c-0.337,0.494-0.109,1.642,0.376,1.801
		c0.462,0.152,0.945,0.281,1.428,0.326c1.467,0.134,2.091,0.78,2.091,2.237c0,0.72-0.03,1.441,0.013,2.159
		c0.036,0.599-0.212,0.818-0.785,0.81c-1.017-0.015-2.035,0.015-3.052-0.009c-0.511-0.012-0.89,0.129-0.977,0.661
		c-0.074,0.455,0.044,0.759,0.589,0.944c0.81,0.275,1.376,0.794,1.192,1.822c-0.106,0.594-0.043,1.224-0.014,1.836
		c0.077,1.627,0.384,1.92,1.959,2.071c0.347,0.033,0.794,0.139,0.993,0.378c0.425,0.511-0.271,2-0.937,2.038
		c-1.595,0.092-3.204,0.261-4.787,0.142c-1.383-0.105-2.222,0.58-2.996,1.468c-0.218,0.25-0.3,0.76-0.22,1.098
		c0.189,0.794,1.7,1.834,2.591,1.909c0.235,0.02,0.478,0.038,0.699,0.113c1.15,0.391,1.789,0.167,2.462-0.824
		c0.163-0.241,0.42-0.469,0.685-0.579c0.451-0.187,0.979-0.207,1.413-0.421c1.236-0.608,2.515-0.451,3.807-0.349
		c2.663,0.209,5.344,0.492,7.993,0.069c1.15-0.184,2.173-0.105,3.088,0.471c0.731,0.46,1.004-0.051,1.251-0.424
		c0.213-0.321,0.245-0.807,0.235-1.217C88.88,26.826,87.976,25.991,87.185,26.049z M80.198,19.357
		c-0.463,0.057-0.92,0.496-1.282,0.856c-0.115,0.114-0.007,0.702,0.159,0.798c0.515,0.296,0.646,0.758,0.687,1.244
		c0.097,1.162,0.135,2.328,0.2,3.492c0.025,0.443-0.183,0.62-0.623,0.614c-0.989-0.014-1.979-0.016-2.968,0.001
		c-0.495,0.009-0.682-0.207-0.624-0.68c0.13-1.06,0.562-1.996,1.096-2.912c0.197-0.338,0.169-0.807,0.243-1.216
		c-0.437-0.071-0.916-0.294-1.303-0.186c-1.187,0.332-1.954-0.06-2.279-1.311c-0.26-1,0.319-1.849,1.409-2.073
		c0.437-0.09,0.729-0.17,0.889-0.768c0.464-1.737,0.269-3.393-0.201-5.07c-0.317-1.129,0.039-1.508,1.226-1.369
		c0.132,0.015,0.268,0.012,0.4-0.002c1.091-0.118,1.359,0.104,1.446,1.212c0.116,1.478,0.227,2.957,0.347,4.435
		c0.078,0.965,0.534,1.198,1.465,1c0.646-0.138,1.345-0.026,2.103-0.026C82.242,19.024,82.007,19.135,80.198,19.357z"/>
	<path class="st0" d="M157.201,18.7c-0.238,0-0.555,0.141-0.697,0.327c-0.291,0.382-0.433,0.881-0.736,1.251
		c-0.887,1.084-1.848,2.107-2.73,3.195c-0.679,0.838-1.395,1.496-2.59,1.304c-0.309-0.05-0.664-0.045-0.952,0.059
		c-0.544,0.197-0.829-0.106-1.048-0.476c-0.182-0.307-0.26-0.676-0.405-1.076c0.256-0.122,0.461-0.297,0.675-0.309
		c0.867-0.046,0.937-0.664,0.925-1.279c-0.016-0.815-0.343-1.521-1.075-1.947c-0.479-0.279-0.477-0.561-0.059-0.829
		c0.875-0.56,1.814-1.028,2.656-1.632c0.618-0.443,1.122-1.043,1.676-1.572c-0.046-0.124-0.092-0.249-0.138-0.373
		c-0.552-0.063-1.103-0.148-1.657-0.182c-0.673-0.041-0.972-0.365-0.798-1.007c0.07-0.259,0.233-0.539,0.439-0.706
		c0.903-0.731,1.795-1.49,2.772-2.113c0.938-0.599,1.011-1.461,1.008-2.392c-0.003-1.07-0.836-1.637-1.834-1.2
		c-1.273,0.557-2.493,1.236-3.778,1.763c-0.79,0.325-1.647,0.573-2.493,0.656c-0.83,0.082-1.686-0.088-2.502-0.145
		c-0.129,0.387-0.27,0.681-0.316,0.989c-0.035,0.236-0.041,0.584,0.099,0.72c0.65,0.63,1.361,1.187,2.354,1.147
		c0.294-0.012,0.606-0.057,0.879,0.02c0.476,0.136,1.102,0.181,1.071,0.902c-0.027,0.612,0.077,1.336-0.862,1.417
		c-0.475,0.041-0.959,0.055-1.422,0.157c-0.598,0.131-1.133,0.46-1.034,1.148c0.091,0.627,0.387,1.18,1.215,1.162
		c0.764-0.017,1.117,0.606,0.744,1.254c-0.668,1.158-1.337,2.315-2.022,3.463c-0.617,1.033-0.398,2.14-0.299,3.227
		c0.162,1.795,1.736,3.068,3.528,3.292c1.59,0.199,3.137-0.074,4.701-0.088c0.873-0.008,1.845-0.277,2.591-0.727
		c1.717-1.036,2.584-2.738,3.098-4.627c0.413-1.517,0.109-2.975-0.402-4.402C157.719,18.891,157.401,18.7,157.201,18.7z"/>
	<path class="st0" d="M141.689,13.131c-0.656,0.439-1.323,0.95-2.197,0.742c-0.306-0.073-0.766-0.199-0.832-0.404
		c-0.093-0.289,0.017-0.751,0.214-1.004c0.436-0.557,0.991-1.021,1.48-1.54c1.109-1.176,1.801-2.446,1.098-4.069
		c-0.248-0.574-0.648-1.094-1.04-1.59c-0.146-0.184-0.504-0.357-0.701-0.303c-0.189,0.052-0.391,0.393-0.418,0.627
		c-0.071,0.605,0.138,1.306-0.098,1.816c-0.718,1.555-1.571,3.05-2.43,4.536c-0.126,0.218-0.559,0.316-0.866,0.364
		c-0.852,0.134-1.732,0.136-2.565,0.338c-0.703,0.17-1.285,1.468-0.912,2.26c0.191,0.406,0.905,0.675,1.43,0.791
		c0.613,0.135,1.278,0.026,1.92,0.037c0.696,0.012,1.07,0.559,0.622,1.09c-0.763,0.903-1.206,2.211-2.657,2.377
		c-0.128,0.015-0.251,0.191-0.35,0.314c-0.484,0.601-0.722,1.207-0.227,1.955c0.45,0.681,1.282,1.217,1.97,1.141
		c0.473-0.052,0.961-0.045,1.417-0.163c0.35-0.09,0.862-0.266,0.95-0.523c0.272-0.801,0.912-0.831,1.533-0.89
		c0.36-0.034,0.735,0.091,1.103,0.144c-0.151,0.542-0.133,1.324-0.49,1.573c-0.658,0.46-1.538,0.601-2.321,0.888
		c-0.417,0.153-1.056,0.226-1.194,0.521c-0.574,1.224-0.705,2.55-0.361,3.876c0.051,0.196,0.339,0.399,0.559,0.47
		c0.475,0.154,0.973,0.263,1.469,0.312c0.237,0.024,0.53-0.075,0.734-0.213c1.593-1.074,2.703-2.607,3.838-4.107
		c0.474-0.627,0.314-1.275-0.349-1.739c-0.254-0.178-0.522-0.334-0.946-0.604c0.43-0.599,0.849-1.189,1.276-1.774
		c0.67-0.918,0.629-1.426-0.317-2.01c-0.682-0.421-0.888-0.991-0.923-1.725c-0.034-0.719,0.59-0.732,0.987-0.969
		c1.377-0.822,1.366-0.803,0.582-2.285C142.413,12.894,142.175,12.807,141.689,13.131z M139.901,19.826c-0.672,0-1.305,0-1.932,0
		c-0.102-1.559,0.411-2.168,1.932-2.29C139.901,18.294,139.901,19.001,139.901,19.826z"/>
	<path class="st0" d="M132.084,28.405c0.621,0.219,1.391-0.134,1.573-0.759c0.124-0.426,0.335-0.91,0.235-1.3
		c-0.201-0.791-0.536-1.56-0.907-2.293c-0.778-1.536-0.802-1.524-2.388-1.223c-0.026,0.005-0.054,0-0.08,0.003
		c-1.067,0.15-1.7,0.904-1.69,2.014c0,0.027-0.009,0.058,0.002,0.079c0.512,0.991,0.965,2.02,1.577,2.946
		c0.182,0.274,0.812,0.252,1.235,0.372C131.792,28.286,131.936,28.352,132.084,28.405z"/>
	<path class="st0" d="M191.177,14.046c0.596-0.723,0.978-1.619,1.479-2.424c0.288-0.462,0.153-0.863-0.235-1.086
		c-0.19-0.109-0.629,0.006-0.836,0.169c-1.184,0.932-2.496,0.875-3.745,0.353c-1.791-0.748-3.503-1.668-5.447-2.024
		c-0.643-0.118-1.034-0.487-0.714-1.308c0.268-0.688,0.026-1.343-0.634-1.808c-1.415-0.995-3.964-0.008-4.357,1.707
		c-0.248,1.083-0.504,2.157-1.465,2.883c-0.357,0.269-0.713,0.544-1.038,0.85c-1.751,1.648-3.488,3.297-5.479,4.684
		c-0.82,0.571-1.379,1.554-1.939,2.425c-0.142,0.222,0.055,0.956,0.288,1.07c1.106,0.546,2.304,0.528,3.47,0.162
		c0.3-0.094,0.598-0.352,0.786-0.613c0.628-0.87,1.166-1.807,1.826-2.65c0.206-0.264,0.686-0.438,1.043-0.442
		c2.487-0.034,4.975,0.04,7.46-0.034c0.999-0.03,1.246-0.795,0.586-1.567c-0.189-0.221-0.52-0.39-0.812-0.443
		c-0.755-0.137-1.523-0.245-2.289-0.273c-1.195-0.044-2.394-0.012-3.807-0.012c0.21-0.398,0.257-0.598,0.382-0.707
		c1.2-1.048,2.4-2.096,3.636-3.1c0.171-0.139,0.601-0.147,0.8-0.03c0.558,0.33,1.05,0.767,1.58,1.146
		c0.657,0.47,1.343,0.902,1.986,1.389c1.56,1.182,3.096,2.398,4.666,3.567c0.154,0.115,0.56,0.094,0.716-0.03
		C189.817,15.323,190.591,14.758,191.177,14.046z"/>
	<path class="st0" d="M185.469,26.271c-0.995-0.518-2.036-0.965-3.094-1.341c-0.591-0.21-0.858,0.156-0.637,0.744
		c0.075,0.198,0.184,0.383,0.253,0.582c0.253,0.726-0.113,1.31-0.877,1.392c-0.975,0.105-1.952,0.271-2.928,0.274
		c-0.626,0.002-1.332-0.105-1.862-0.406c-1.122-0.638-2.115-1.498-3.232-2.146c-0.689-0.4-0.732-0.759-0.382-1.39
		c0.219-0.394,0.296-0.865,0.438-1.302c-0.077-0.062-0.155-0.124-0.232-0.186c-0.669,0.319-1.347,0.621-2.006,0.959
		c-2.535,1.304-2.839,3.189-1.955,5.268c0.326,0.767,1.047,1.05,2.067,0.746c0.639-0.191,0.967-0.691,0.96-1.428
		c-0.006-0.632,0.144-1.264,0.226-1.897c0.088-0.016,0.177-0.031,0.265-0.047c0.169,0.184,0.383,0.343,0.498,0.556
		c0.444,0.824,0.924,1.639,1.267,2.505c0.581,1.467,0.75,1.587,2.31,1.65c1.891,0.077,3.659-0.509,5.476-0.853
		c1.399-0.265,2.587-0.841,3.563-1.882C186.111,27.51,186.132,26.617,185.469,26.271z"/>
	<path class="st0" d="M177.886,25.413c0.518,0.164,1.126,0.24,1.441-0.312c0.348-0.61,0.727-1.286,0.786-1.961
		c0.13-1.486-0.156-3.009,0.626-4.418c0.122-0.22-0.028-0.87-0.147-0.896c-0.555-0.122-1.409-0.347-1.669-0.075
		c-0.734,0.769-1.617,0.796-2.512,0.908c-1.072,0.135-2.148,0.238-3.224,0.341c-0.579,0.056-0.636,0.419-0.497,0.85
		c0.399,1.233,1.831,1.886,3.032,1.403c0.918-0.369,1.404-0.038,1.419,0.971c0.005,0.346,0.001,0.692,0.001,1.038
		c0,0.346,0.04,0.698-0.009,1.037C177.044,24.919,177.377,25.252,177.886,25.413z"/>
	<path class="st0" d="M185.907,18.364c-1.311,0.134-2.409,0.761-3.447,1.508c-0.168,0.121-0.258,0.35-0.442,0.61
		c1.129,0.115,1.675,0.588,1.975,1.615c0.363,1.244,1.751,1.985,2.812,0.799c0.587-0.657,0.978-1.584,1.188-2.454
		C188.25,19.373,187.019,18.251,185.907,18.364z"/>
	<path class="st0" d="M46.895,27.981c-0.277,0.003-0.383-0.058-0.37-0.371c0.024-0.737,0.024-1.479,0-2.218
		c-0.012-0.307,0.086-0.377,0.367-0.373c1.561,0.012,3.124,0.007,4.688,0.004c0.124,0,0.247-0.012,0.378-0.019
		c-0.147-2.522-0.635-4.922-1.469-7.248C47.115,8.349,38.499,1.484,28.104,0.688c-2.619-0.202-5.214-0.011-7.776,0.597
		C14.442,2.68,9.571,5.765,5.77,10.593c-2.746,3.49-4.45,7.467-5.156,11.893c-0.132,0.823-0.195,1.66-0.295,2.55
		c1.849,0,3.644,0,5.456,0c0,0.895-0.016,1.734,0.01,2.572c0.007,0.31-0.089,0.377-0.369,0.374c-1.551-0.01-3.104-0.004-4.654-0.004
		c-0.128,0-0.256,0-0.413,0c0.15,2.54,0.637,4.943,1.471,7.267c3.376,9.414,11.996,16.272,22.385,17.069
		c2.398,0.185,4.779,0.035,7.136-0.459c5.907-1.239,10.847-4.189,14.759-8.9c2.994-3.604,4.848-7.766,5.594-12.439
		c0.132-0.824,0.194-1.66,0.294-2.538c-0.182,0-0.309,0-0.439,0C49.997,27.977,48.445,27.971,46.895,27.981z M28.331,49.839
		C14.93,51.051,4.587,41.219,3.019,29.991c0.106-0.01,0.208-0.025,0.311-0.025c0.798-0.001,1.596,0.009,2.393-0.006
		c0.226-0.002,0.326,0.062,0.375,0.299c1.56,7.415,5.861,12.441,12.66,15.292c0.09,0.037,0.183,0.07,0.276,0.101
		c0.019,0.007,0.044,0.002,0.103,0.002c0-4.032,0-8.064,0-12.152c-0.134,0-0.271,0-0.408,0c-3.103,0-6.206,0-9.309,0
		c-0.431,0-0.434-0.003-0.434-0.443c-0.001-4.371-0.001-8.744,0-13.116c0-0.442,0.001-0.442,0.435-0.442c3.091,0,6.184,0,9.276,0
		c0.141,0,0.283,0,0.453,0c0-4.082,0-8.11,0-12.189c-0.176,0.064-0.318,0.106-0.456,0.163c-5.909,2.447-9.972,6.709-12.017,12.93
		c-0.247,0.751-0.397,1.535-0.573,2.306c-0.053,0.231-0.126,0.337-0.381,0.332c-0.797-0.02-1.595-0.007-2.393-0.007
		c-0.096,0-0.191-0.013-0.288-0.022C4.155,13.863,12.044,4.233,23.98,3.16c13.427-1.208,23.753,8.652,25.31,19.849
		c-0.105,0.01-0.207,0.027-0.31,0.027c-0.799,0-1.596-0.008-2.395,0.005c-0.223,0.001-0.325-0.061-0.374-0.295
		c-1.562-7.431-5.879-12.459-12.689-15.306c-0.106-0.046-0.22-0.075-0.364-0.124c0,4.074,0,8.103,0,12.185c0.147,0,0.283,0,0.42,0
		c3.104,0,6.207,0,9.309,0c0.435,0,0.436,0,0.436,0.442c0,4.372,0,8.745,0,13.116c0,0.442-0.001,0.443-0.435,0.443
		c-3.093,0-6.184,0-9.275,0c-0.142,0-0.282,0-0.452,0c0,4.061,0,8.101,0,12.184c0.172-0.059,0.315-0.101,0.452-0.159
		c5.909-2.447,9.973-6.708,12.019-12.931c0.246-0.75,0.396-1.532,0.572-2.305c0.053-0.23,0.127-0.337,0.381-0.332
		c0.799,0.02,1.596,0.007,2.394,0.008c0.096,0,0.191,0.013,0.288,0.018C48.171,39.069,40.32,48.758,28.331,49.839z"/>
	<path class="st0" d="M39.826,29.255c0-1.854,0-3.664,0-5.51c-0.161,0-0.302,0-0.441,0c-3.343,0-6.687,0-10.03,0
		c-0.45,0-0.45-0.001-0.45-0.457c0-3.846,0-7.691,0-11.538c0-0.139,0-0.279,0-0.415c-1.863,0-3.671,0-5.5,0c0,0.173,0,0.317,0,0.463
		c0,3.834,0,7.668,0,11.504c0,0.442-0.001,0.443-0.429,0.443c-3.354,0-6.709,0-10.063,0c-0.139,0-0.278,0-0.428,0
		c0,1.856,0,3.666,0,5.51c0.16,0,0.301,0,0.44,0c3.344,0,6.689,0,10.033,0c0.447,0,0.448,0,0.448,0.457c0,3.844,0,7.693,0,11.538
		c0,0.141,0,0.28,0,0.426c1.855,0,3.655,0,5.5,0c0-0.183,0-0.33,0-0.472c0-3.837,0-7.671,0-11.505c0-0.443,0.001-0.443,0.431-0.443
		c3.354,0,6.709,0,10.064,0C39.538,29.255,39.674,29.255,39.826,29.255z"/>
</g>
</svg>
