<svg enable-background="new 0 0 100 64.36" height="253.8762" viewBox="0 0 100 64.36" width="393.892771" xmlns="http://www.w3.org/2000/svg"><path d="m55.01 54.22c-1.82-.27-3.38-1.71-3.91-3.18-1.09-2.26-1.25-3.99-1.58-3.94-.19 0-.58 1.73.31 4.48.47 1.31 1.37 3.03 3.29 3.99.58.3 1.23.47 1.9.54v-1.89z" fill="#80c8ef"/><path d="m59.22 45.47h1.7c-.26-.44-.54-.83-.81-1.17-1.83-2.17-3.41-2.9-3.54-2.74-.21.24 1.05 1.38 2.41 3.53.08.12.16.25.24.38" fill="#8dc6ec"/><path d="m43.16 33.47c-.53.03 1.16-6.27-2.2-15.31-1.72-4.38-4.92-9.38-10.21-12.6-5.19-3.18-12.6-4.34-19.09-1.46-3.23 1.4-6.03 3.62-7.73 6.34-1.7 2.73-2.01 5.96-.96 8.71 2.08 5.87 7.59 8.43 12.14 9.78 4.62 1.4 8.54 2.47 11.03 3.74 2.52 1.22 4.93 3.3 4.84 3.4-.12.18-2.68-1.6-5.22-2.51-2.53-.96-6.35-1.73-11.16-2.95-2.38-.66-5.07-1.47-7.65-3.15-2.61-1.66-4.87-4.25-6.15-7.52-1.35-3.28-1.02-7.51 1.03-10.78 2.02-3.29 5.21-5.79 8.82-7.35 7.35-3.23 15.63-1.84 21.31 1.8 5.8 3.69 9.05 9.23 10.66 13.95 3.1 9.77.66 16.09.54 15.91" fill="#f18e1d"/><path d="m26.27 36.94c.07.32-2.87.49-6.89 2.36-1.96.95-4.12 2.57-5.31 5.13-1.36 2.46-.9 5.84 1.89 7.56 2.65 1.78 6.02 1.8 8.63.77 2.67-1 4.78-2.72 6.48-4.18 3.35-3.02 5.3-5.12 5.5-4.92.14.13-1.44 2.48-4.66 5.82-1.65 1.61-3.76 3.54-6.73 4.77-2.92 1.26-6.96 1.35-10.19-.82-1.6-1.07-2.84-2.72-3.21-4.59-.38-1.87.13-3.69.86-5.11 1.48-2.95 4.07-4.67 6.24-5.54 4.44-1.71 7.39-1.39 7.39-1.25" fill="#1a96d5"/><path d="m56.47 32.04c-.22-.11 1.78-3.47 6.86-6.84 2.54-1.6 5.72-3.52 9.94-3.99 2.15-.18 4.4.31 6.42 1.49 2.04 1.16 3.7 3.3 4.19 5.79 1.04 5.08-2.23 9.77-6.06 11.45-3.8 1.7-7.55 1.95-10.57 1.7-6.07-.61-9.43-2.4-9.36-2.53.08-.34 3.62.98 9.43 1.24 2.88.08 6.39-.32 9.76-1.93 3.25-1.51 5.85-5.49 5.01-9.55-.74-4.1-5.2-6.22-8.68-5.97-3.67.3-6.87 2-9.38 3.4-5.08 2.97-7.35 5.91-7.56 5.74" fill="#43b149"/><path d="m46.12 62.58c.03.13.19.27.08.34-.09.05-.16-.02-.26-.06-.18-.06-.24-.17-.41-.26-.14-.07-.28-.28-.36-.15-.11.17-.17.13-.26.22-.04.05-.05.1-.11.13-.18.1-.28-.21-.34-.41-.04-.14.05-.24 0-.37-.05-.11-.16-.13-.21-.24-.09-.21.03-.36.06-.58.03-.21.07-.33.07-.54.01-.32 0-.51-.13-.8-.12-.26-.32-.32-.45-.58-.08-.15-.09-.25-.15-.41-.11-.28-.13-.45-.3-.69-.17-.25-.31-.36-.56-.52-.21-.14-.35-.17-.58-.28-.19-.09-.42-.03-.49-.22-.04-.1.07-.19 0-.26-.07-.09-.22.08-.3 0-.07-.07.02-.18-.06-.24-.07-.07-.16.01-.26 0-.29-.04-.42-.2-.66-.38-.31-.22-.47-.52-.69-.69-.21-.24-.34-.36-.38-.65-.03-.27.21-.41.17-.67-.03-.18-.09-.28-.19-.43-.11-.16-.25-.19-.34-.36-.08-.17.05-.33-.08-.47-.07-.08-.23-.02-.24-.13-.01-.1.11-.12.15-.21.18-.38-.34-.58-.45-.99-.08-.29.15-.62-.11-.77-.1-.05-.19.01-.28-.05-.09-.08.01-.27-.11-.28-.11-.01-.1.24-.19.2-.15-.09-.36-.08-.43-.26-.05-.11-.02-.19 0-.32.03-.23.19-.32.21-.54.01-.17-.21-.35-.06-.45.15-.13.09-.19.15-.41.13-.39.25-.61.32-1.03.03-.19.24-.22.05-.48-.05-.13-.05-.37-.05-.37.17-.05.16.24.32.24.26 0 0-.41-.04-.67-.03-.2.04-.28-.13-.5-.05-.13 0-.35 0-.58 0-.53-.04-.82-.04-1.36 0-.34.27-.46.36-.79.07-.28-.05-.47.08-.73.15-.32.6-.24.71-.58.03-.09.02-.15.04-.24.07-.35.22-.51.35-.84.15-.35.15-.59.36-.91.18-.28.39-.36.58-.64.2-.29.22-.52.41-.82.18-.29.37-.4.52-.71.18-.36.15-.61.28-.99.17-.49.25-.78.52-1.22.17-.27.34-.38.51-.65.2-.32.26-.52.41-.86.14-.32.13-.56.36-.82.15-.18.3-.22.47-.38.08-.07.11-.12.19-.19.23-.2.5-.15.67-.41.09-.14.06-.26.15-.39.1-.15.26-.21.35-.3.24-.32.3-.64.32-.99.02-.15.15-.15.22-.26.11-.19.13-.33.17-.39.05-.3.18-.51.26-.82.04-.15.28-.34.3-.39.34-.32.51-.39.67-.67.21-.3.56-.28.92-.37.34-.15.55-.25.91-.36.35-.1.6-.01.92-.19.24-.13.37-.23.52-.45.11-.16.11-.28.21-.45.16-.27.28-.39.5-.64.13-.08.28-.19.49-.23.1-.01.16 0 .26 0 .16 0 .27-.07.41 0 .11.05.15.11.22.21.07.09.1.16.15.26.05.11.04.19.11.28.05.05.08.09.15.11s.11 0 .19 0 .14-.05.2 0c.08.06-.04.17 0 .26.04.1.13.12.22.19.1.07.15.13.26.17.11.03.18.03.3.02.07-.01.1-.04.17-.04.09.01.13.06.21.11.08.06.09.14.19.19.14.07.24 0 .39 0 .13 0 .21-.02.34 0 .08.01.14-.02.19.04.04.05.04.09.04.15 0 .09-.06.12-.08.2-.01.11.01.18.04.28.05.16.1.27.24.35.08.05.13.07.23.08.08 0 .13-.06.2-.04s.13.04.15.11c.01.04.02.07 0 .11-.02.06-.07.06-.13.09s-.1.03-.17.06c-.14.06-.2.12-.32.2-.19.14-.29.24-.45.41-.24.26-.38.42-.51.75-.06.15-.09.23-.11.39-.04.24-.02.38 0 .62.02.25.05.39.11.64.07.28.09.44.22.69.09.16.22.2.28.37.05.17.03.27.02.45s-.06.27-.1.45c-.02.16.02.28-.05.43-.05.11-.13.14-.2.24-.16.21-.22.35-.32.6-.12.29-.14.47-.2.78-.05.23-.01.38-.09.6-.1.26-.26.35-.43.58-.17.22-.3.38-.43.56-.11.17-.09.42-.17.69-.04.14-.07.23-.11.37-.06.19-.14.29-.13.49.01.18.17.25.17.43 0 .24-.23.31-.3.54-.09.3.02.49 0 .8-.01.21 0 .34-.06.54-.05.16-.19.21-.19.39.02.39-.13.54-.19 1.05 0 .41-.12.24-.15.41-.03.19.02.3 0 .49-.02.25-.09.39-.13.64-.07.46-.03.72-.09 1.18-.05.37-.1.57-.19.93-.05.22-.05.39-.13.56-.04.19.11.17-.24.36-.17.09-.18.46-.24.76-.02.09-.04.09-.04.24-.08.47-.13.38-.09.62.02.11.09.16.09.28 0 .26-.43.22-.49.47-.07.45-.25.64-.43 1.05-.21.47-.2.84-.58 1.18-.19.17-.43.12-.56.34-.09.16-.06.28-.09.47s-.02.3-.07.48c-.07.23-.12.4-.32.54-.16.12-.13.17-.47.17-.15 0-.3.1-.45.23-.22.17-.28.34-.39.6-.09.2-.09.33-.17.54-.07.21-.12.32-.2.52-.11.26-.22.38-.3.65-.06.21-.04.35-.09.56-.09.37-.24.55-.32.91-.07.31-.09.49-.09.8-.01.26.06.41.04.67-.02.25-.14.38-.13.64s.26.43.19.64c-.09.39 0 .8 0 1.07 0 .17-.28.05-.39.17-.12.13-.15.25-.15.43.01.14.1.21.14.36" fill="#323b8c"/><path d="m55.26 45.63h8.78v3.21h-5.44v3.15h5.44v3.16h-5.44v7.78h-3.34z"/><path d="m66.34 45.63h3.99c2.57 0 4.48.31 5.73.94 1.25.62 2.28 1.64 3.09 3.04s1.21 3.04 1.21 4.91c0 1.33-.23 2.56-.68 3.68s-1.08 2.04-1.87 2.78c-.8.74-1.66 1.25-2.59 1.53s-2.54.42-4.83.42h-4.05zm3.34 3.18v10.91h1.56c1.54 0 2.65-.17 3.35-.52.69-.35 1.26-.93 1.7-1.74.44-.82.66-1.82.66-3.01 0-1.84-.52-3.26-1.57-4.27-.95-.91-2.46-1.37-4.56-1.37z"/><path d="m87.18 45.63h3.43l6.78 17.3h-3.5l-1.38-3.56h-7.2l-1.44 3.56h-3.5zm1.74 4.58-2.37 5.94h4.72z"/><path d="m54.03 22.82c-.23.01 2.16-4.69 0-10.32-2.01-5.53-5.98-8.65-5.73-8.83 0-.14 4.3 2.79 6.43 8.59 2.26 5.94-.6 10.83-.7 10.56"/><path d="m69.6 15.62c.02 0-3.75.09-7.36 2.87-3.75 2.51-5.48 5.79-5.46 5.79-.3-.07 1.34-3.64 5.17-6.19 3.69-2.86 7.74-2.76 7.65-2.47"/><path d="m0 0h100v64.36h-100z" fill="none"/></svg>